<mxfile host="app.diagrams.net" modified="2024-01-18T03:44:59.647Z" agent="Mozilla/5.0 (Windows NT 10.0; Win64; x64) AppleWebKit/537.36 (KHTML, like Gecko) Chrome/120.0.0.0 Safari/537.36" version="22.1.21" etag="wVkrN7rrznt5_EJX_V8j" type="github">
  <diagram name="第 1 页" id="31IKMO835xw3d1gbN6Fc">
    <mxGraphModel>
      <root>
        <mxCell id="0" />
        <mxCell id="1" parent="0" />
      </root>
    </mxGraphModel>
  </diagram>
</mxfile>
